PathFileType	4	(X/Y/Z)	/Users/itak/Documents/Research/Walk-IL/dataset/trc/00195_00008.trc
DataRate	CameraRate	NumFrames	NumMarkers	Units	OrigDataRate	OrigDataStartFrame	OrigNumFrames
100.000000	100.000000	4	53	mm	100.000000	684	782
Frame#	Time	RPSI			LPSI			L3			STRN			T10			C7			CLAV			RBAK			LBAK			LSHO			LUPA			LAEL			LAOL			LWTS			LWPS			LFRA			LIFD			LHPS			LHTS			RSHO			RUPA			RAEL			RAOL			RWTS			RWPS			RFRA			RIFD			RHTS			RHPS			RBHD			LFHD			RFHD			LBHD			LHIP			RHIP			RASI			LASI			LKNE			LTHI			LANK			LTIP			LTOE			LMT1			LMT5			LHEE			RKNE			RTHI			RANK			RTIP			RTOE			RMT1			RMT5			RHEE			
		X1	Y1	Z1	X2	Y2	Z2	X3	Y3	Z3	X4	Y4	Z4	X5	Y5	Z5	X6	Y6	Z6	X7	Y7	Z7	X8	Y8	Z8	X9	Y9	Z9	X10	Y10	Z10	X11	Y11	Z11	X12	Y12	Z12	X13	Y13	Z13	X14	Y14	Z14	X15	Y15	Z15	X16	Y16	Z16	X17	Y17	Z17	X18	Y18	Z18	X19	Y19	Z19	X20	Y20	Z20	X21	Y21	Z21	X22	Y22	Z22	X23	Y23	Z23	X24	Y24	Z24	X25	Y25	Z25	X26	Y26	Z26	X27	Y27	Z27	X28	Y28	Z28	X29	Y29	Z29	X30	Y30	Z30	X31	Y31	Z31	X32	Y32	Z32	X33	Y33	Z33	X34	Y34	Z34	X35	Y35	Z35	X36	Y36	Z36	X37	Y37	Z37	X38	Y38	Z38	X39	Y39	Z39	X40	Y40	Z40	X41	Y41	Z41	X42	Y42	Z42	X43	Y43	Z43	X44	Y44	Z44	X45	Y45	Z45	X46	Y46	Z46	X47	Y47	Z47	X48	Y48	Z48	X49	Y49	Z49	X50	Y50	Z50	X51	Y51	Z51	X52	Y52	Z52	X53	Y53	Z53	

685	6.84	676.2757568359375	1056.87939453125	941.5921630859375	694.6231689453125	1059.854858398438	1063.372802734375	685.6353149414062	1094.469116210938	998.9152221679688	441.6469116210938	1307.651123046875	1067.393920898438	726.8598022460938	1257.489379882812	994.4866333007812	667.36767578125	1524.82275390625	1032.843017578125	474.4598693847656	1421.424560546875	1078.3984375	703.8008422851562	1357.825317382812	902.5774536132812	702.3840942382812	1495.056762695312	1124.465942382812	651.5607299804688	1479.877075195312	1219.642578125	706.1285400390625	1349.09375	1276.156494140625	698.0217895507812	1135.933227539062	1306.912963867188	710.976806640625	1111.8427734375	1222.253662109375	561.960693359375	919.854248046875	1348.511108398438	650.4839477539062	889.4235229492188	1349.258911132812	681.93212890625	1028.1806640625	1334.203857421875	521.6560668945312	738.5999755859375	1351.9169921875	622.3134765625	823.5194702148438	1362.042358398438	554.6587524414062	844.226318359375	1380.353149414062	557.8739624023438	1514.762084960938	875.32275390625	556.7278442382812	1450.326049804688	801.1675415039062	540.79150390625	1158.889282226562	739.2305297851562	574.4526977539062	1151.319458007812	831.0819702148438	367.5085754394531	973.0435180664062	825.2406616210938	417.1803283691406	933.615234375	762.4544677734375	497.4931030273438	1089.809204101562	736.4210205078125	323.1259155273438	797.8532104492188	881.6408081054688	318.7723693847656	889.8829345703125	837.9064331054688	372.6505432128906	861.57080078125	784.4033813476562	545.1386108398438	1697.38037109375	1001.597717285156	421.3668212890625	1684.248657226562	1180.643798828125	379.3984985351562	1684.577026367188	1057.4716796875	591.6615600585938	1706.68798828125	1130.096069335938	598.4894409179688	1010.792724609375	1205.13525390625	505.0262756347656	1015.787353515625	838.8987426757812	458.7032775878906	1048.3916015625	921.507080078125	476.3395080566406	1046.832397460938	1163.768798828125	474.6661682128906	514.33837890625	1185.065551757812	512.9795532226562	656.52490234375	1207.057861328125	528.206787109375	37.06884002685547	1183.486450195312	495.1241149902344	281.6790466308594	1196.552612304688	310.5844421386719	54.29871368408203	1166.501953125	356.3130798339844	56.46246719360352	1117.39501953125	422.9213256835938	34.06830596923828	1225.311645507812	574.040283203125	40.82094573974609	1110.978515625	382.7590942382812	521.7841186523438	881.349853515625	414.7810974121094	793.8280029296875	849.0650024414062	661.3305053710938	106.0282669067383	848.8696899414062	414.289794921875	399.1480712890625	888.8927612304688	457.2086791992188	66.15427398681641	894.6406860351562	510.005615234375	64.96865081787109	935.5043334960938	554.6929931640625	72.36199951171875	820.3626708984375	713.2059326171875	122.0814666748047	914.35009765625	
686	6.850000000000001	674.0602416992188	1057.51513671875	944.3367919921875	691.8374633789062	1060.282104492188	1066.214721679688	683.1895751953125	1095.122680664062	1001.835571289062	438.3076782226562	1308.07958984375	1068.885375976562	724.2931518554688	1258.242919921875	998.4110717773438	664.1339111328125	1525.433349609375	1036.642944335938	471.0193176269531	1422.071899414062	1080.392211914062	701.9481811523438	1358.611083984375	906.5223999023438	698.3208618164062	1495.666137695312	1128.599243164062	646.457275390625	1480.490112304688	1223.153686523438	700.2481079101562	1350.021362304688	1280.907836914062	691.3805541992188	1137.301147460938	1313.628295898438	705.1234130859375	1112.202270507812	1229.363891601562	552.7430419921875	923.2757568359375	1356.628295898438	640.9361572265625	891.6983642578125	1358.27783203125	674.1074829101562	1029.957641601562	1341.99365234375	509.8662719726562	742.9262084960938	1362.62646484375	611.7228393554688	826.299072265625	1371.739135742188	544.4322509765625	848.3689575195312	1389.673828125	556.128173828125	1515.411743164062	878.0950927734375	555.8097534179688	1451.037231445312	803.9041137695312	540.7255859375	1159.498901367188	741.80126953125	573.7021484375	1152.083129882812	833.927490234375	366.2187194824219	974.6676635742188	827.6533813476562	415.8681640625	934.7640991210938	765.0970458984375	497.1998596191406	1090.437866210938	738.9234619140625	321.092041015625	799.760009765625	884.7286376953125	316.9757385253906	891.8646240234375	840.457763671875	370.8564758300781	863.023681640625	787.2080078125	541.47265625	1697.90869140625	1004.539245605469	416.4321594238281	1683.965454101562	1182.64404296875	375.3738708496094	1684.380859375	1059.225708007812	587.0341186523438	1707.117919921875	1133.41357421875	596.6287841796875	1010.101318359375	1206.326782226562	503.3816223144531	1016.793273925781	840.8477783203125	457.4920654296875	1049.202880859375	923.6066284179688	473.14208984375	1046.899536132812	1165.6376953125	474.4274597167969	514.1531372070312	1185.716674804688	511.4238891601562	656.424560546875	1208.2353515625	528.1595458984375	37.13369750976562	1183.36376953125	495.0468139648438	281.5649108886719	1196.806884765625	310.3436279296875	53.82214736938477	1166.421020507812	356.2117614746094	56.34222793579102	1117.33056640625	422.7710266113281	34.0306396484375	1225.417724609375	574.001953125	40.89042663574219	1110.90478515625	378.7308959960938	523.2222290039062	883.106689453125	412.0929260253906	795.246826171875	850.0723876953125	645.9409790039062	99.54991912841797	854.8106079101562	407.595703125	399.9718627929688	891.4354248046875	440.0652465820312	67.86318206787109	899.6884155273438	492.5666809082031	64.88008117675781	940.9012451171875	538.3873291015625	69.7406005859375	826.020751953125	698.1123657226562	114.1201934814453	920.3793334960938	
687	6.86	671.7918090820312	1058.1015625	946.9818115234375	689.0664672851562	1060.6533203125	1068.939086914062	680.7466430664062	1095.718383789062	1004.637268066406	435.0130004882812	1308.542236328125	1070.3779296875	721.7310791015625	1258.92578125	1002.149719238281	660.9599609375	1525.992431640625	1040.250244140625	467.65869140625	1422.64111328125	1082.307861328125	700.0728149414062	1359.325439453125	910.2940063476562	694.3764038085938	1496.228515625	1132.510375976562	641.545166015625	1481.072631835938	1226.468017578125	694.5546875	1350.90234375	1285.40283203125	684.8409423828125	1138.647216796875	1320.030517578125	699.31689453125	1112.549682617188	1236.169189453125	543.704833984375	926.6934814453125	1364.4423828125	631.54638671875	894.005859375	1366.95263671875	666.4042358398438	1031.74072265625	1349.449462890625	498.3097229003906	747.3125	1372.987060546875	601.3369750976562	829.1627807617188	1381.10400390625	534.4072265625	852.52490234375	1398.662109375	554.3687133789062	1516.00341796875	880.7533569335938	554.8440551757812	1451.692749023438	806.5343627929688	540.6881103515625	1160.064208984375	744.2698974609375	572.992431640625	1152.797119140625	836.6614379882812	365.0792541503906	976.1062622070312	829.841064453125	414.7103271484375	935.8026733398438	767.4904174804688	496.9702453613281	1091.010009765625	741.2849731445312	319.2498168945312	801.4805908203125	887.4885864257812	315.3515014648438	893.6263427734375	842.7398681640625	369.2450561523438	864.3272705078125	789.7244262695312	537.9215087890625	1698.399169921875	1007.29248046875	411.6479187011719	1683.701171875	1184.494140625	371.4774475097656	1684.186767578125	1060.839965820312	582.5436401367188	1707.516235351562	1136.536376953125	595.1429443359375	1009.195983886719	1207.268432617188	501.6624450683594	1017.769714355469	842.769287109375	455.1871032714844	1050.067504882812	925.0911254882812	470.0180053710938	1046.929077148438	1167.475219726562	474.2202453613281	513.9548950195312	1186.316162109375	509.9223022460938	656.3060913085938	1209.343017578125	528.0962524414062	37.22189712524414	1183.209838867188	494.9756774902344	281.4451904296875	1197.012817382812	310.0581970214844	53.26425552368164	1166.324951171875	356.0692749023438	56.17257690429688	1117.2255859375	422.6052551269531	33.99682998657227	1225.529174804688	573.9436645507812	40.95481872558594	1110.794677734375	375.0823974609375	524.4768676757812	884.7514038085938	409.474609375	796.561767578125	851.1046752929688	630.6954345703125	93.29581451416016	860.3057861328125	401.2640991210938	400.6711120605469	893.8560180664062	423.4299621582031	69.78537750244141	904.5477294921875	475.6663208007812	65.04131317138672	946.0122680664062	522.3385620117188	67.39533233642578	831.2960205078125	683.2155151367188	106.3777084350586	925.899658203125	
688	6.87	669.4712524414062	1058.634155273438	949.5178833007812	686.3087158203125	1060.975219726562	1071.540771484375	678.2980346679688	1096.260986328125	1007.318786621094	431.7554626464844	1309.050903320312	1071.892333984375	719.1732788085938	1259.538330078125	1005.706359863281	657.8455810546875	1526.50048828125	1043.666259765625	464.3403015136719	1423.093994140625	1084.125	698.17236328125	1359.968994140625	913.8917846679688	690.5537719726562	1496.744384765625	1136.20166015625	636.8346557617188	1481.624389648438	1229.593139648438	689.06298828125	1351.73681640625	1289.643798828125	678.4110107421875	1139.966186523438	1326.113403320312	693.5585327148438	1112.883911132812	1242.657104492188	534.8530883789062	930.0909423828125	1371.935302734375	622.3239135742188	896.3422241210938	1375.2763671875	658.8280029296875	1033.52294921875	1356.5654296875	487.0169677734375	751.7282104492188	1382.959594726562	591.1803588867188	832.1069946289062	1390.12646484375	524.5953369140625	856.6793212890625	1407.292724609375	552.5863647460938	1516.534790039062	883.30126953125	553.8173217773438	1452.286010742188	809.0626220703125	540.6600341796875	1160.578491210938	746.6422119140625	572.3167114257812	1153.452392578125	839.2865600585938	364.0700378417969	977.3419189453125	831.7796020507812	413.7070922851562	936.7089233398438	769.6300048828125	496.793212890625	1091.516845703125	743.5089111328125	317.5968933105469	803.0079345703125	889.904052734375	313.8938293457031	895.1473999023438	844.7227172851562	367.82275390625	865.4561767578125	791.9420776367188	534.4894409179688	1698.846801757812	1009.860168457031	407.0225830078125	1683.46728515625	1186.205444335938	367.7101440429688	1683.997802734375	1062.321655273438	578.1929931640625	1707.882446289062	1139.463989257812	593.753173828125	1008.215942382812	1208.115478515625	499.8675231933594	1018.70361328125	844.6486206054688	451.4656066894531	1051.013549804688	925.7836303710938	466.955810546875	1046.92333984375	1169.27978515625	474.0502319335938	513.7477416992188	1186.880981445312	508.4822998046875	656.1690673828125	1210.382568359375	528.0187377929688	37.33186721801758	1183.030517578125	494.9019470214844	281.3170471191406	1197.176147460938	309.7410583496094	52.64619445800781	1166.216796875	355.8846435546875	55.95108795166016	1117.079345703125	422.4438781738281	33.9759521484375	1225.630615234375	573.8720703125	41.00918579101562	1110.652221679688	371.7720642089844	525.5488891601562	886.3226928710938	406.90185546875	797.7485961914062	852.1737670898438	615.6943969726562	87.31877899169922	865.379150390625	395.2829284667969	401.24658203125	896.2055053710938	407.4174194335938	71.87017822265625	909.3121948242188	459.4180297851562	65.44853973388672	950.9157104492188	506.6402893066406	65.31415557861328	836.2509765625	668.6055297851562	98.93838500976562	930.9136352539062	
